<?xml version="1.0" encoding="UTF-8"?>
<svg version="1.1" xmlns="http://www.w3.org/2000/svg" width="512" height="512">
<path d="M0 0 C0.99868909 -0.00297112 1.99737819 -0.00594224 3.02633059 -0.0090034 C6.35908455 -0.01764635 9.69180239 -0.01919493 13.02456665 -0.02069092 C15.42015662 -0.02532233 17.81574585 -0.03034742 20.21133423 -0.03573608 C26.71186048 -0.04883371 33.21237985 -0.05533771 39.71291685 -0.05974674 C43.78023756 -0.06251761 47.84755591 -0.06675656 51.91487503 -0.07125092 C63.19913521 -0.08343966 74.48339352 -0.09373856 85.76766014 -0.09712601 C86.48888342 -0.09734557 87.2101067 -0.09756514 87.95318524 -0.09779136 C88.67603937 -0.09800964 89.39889351 -0.09822791 90.14365232 -0.09845281 C91.60818887 -0.09889626 93.07272542 -0.09934282 94.53726196 -0.09979248 C95.2637076 -0.10001391 95.99015323 -0.10023534 96.73861237 -0.10046348 C108.48858398 -0.10440477 120.23849332 -0.12184006 131.98844092 -0.145152 C144.08217627 -0.16895013 156.17588049 -0.18133175 168.26963961 -0.18249393 C175.04751456 -0.18340615 181.82530843 -0.18904286 188.60316086 -0.20731354 C194.98736375 -0.22388814 201.37141365 -0.2259044 207.75563049 -0.21717453 C210.08628883 -0.21640908 212.41695571 -0.22068117 214.74759293 -0.23063278 C258.07962913 -0.40465983 296.27158717 14.14096113 327.37026978 44.66778564 C335.82133285 53.25263113 342.72223089 62.77794547 348.81997681 73.14044189 C349.16657349 73.72519287 349.51317017 74.30994385 349.87026978 74.91241455 C362.01010239 95.68527045 368.98307225 119.22610484 368.9604187 143.32046509 C368.96487538 144.81849873 368.96487538 144.81849873 368.9694221 146.34679568 C368.97806505 149.67954963 368.97961363 153.01226748 368.98110962 156.34503174 C368.98574103 158.7406217 368.99076612 161.13621093 368.99615479 163.53179932 C369.00925242 170.03232557 369.01575642 176.53284494 369.02016544 183.03338194 C369.02293631 187.10070264 369.02717527 191.168021 369.03166962 195.23534012 C369.04385836 206.5196003 369.05415726 217.80385861 369.05754471 229.08812523 C369.05776427 229.80934851 369.05798384 230.53057179 369.05821006 231.27365033 C369.05842834 231.99650446 369.05864662 232.7193586 369.05887151 233.46411741 C369.05931496 234.92865396 369.05976152 236.3931905 369.06021118 237.85772705 C369.06043261 238.58417268 369.06065404 239.31061832 369.06088218 240.05907746 C369.06482347 251.80904907 369.08225876 263.55895841 369.1055707 275.308906 C369.12936883 287.40264135 369.14175045 299.49634558 369.14291263 311.5901047 C369.14382485 318.36797965 369.14946156 325.14577352 369.16773224 331.92362595 C369.18430684 338.30782883 369.1863231 344.69187874 369.17759323 351.07609558 C369.17682778 353.40675392 369.18109987 355.7374208 369.19105148 358.06805801 C369.36507853 401.40009422 354.81945758 439.59205226 324.29263306 470.69073486 C315.70778757 479.14179794 306.18247323 486.04269597 295.81997681 492.14044189 C295.23522583 492.48703857 294.65047485 492.83363525 294.04800415 493.19073486 C273.27514825 505.33056748 249.73431386 512.30353734 225.63995361 512.28088379 C224.64126452 512.28385491 223.64257542 512.28682603 222.61362302 512.28988719 C219.28086907 512.29853014 215.94815122 512.30007872 212.61538696 512.30157471 C210.219797 512.30620611 207.82420777 512.31123121 205.42861938 512.31661987 C198.92809313 512.3297175 192.42757376 512.3362215 185.92703676 512.34063053 C181.85971606 512.3434014 177.7923977 512.34764035 173.72507858 512.3521347 C162.4408184 512.36432345 151.15656009 512.37462235 139.87229347 512.3780098 C138.79045855 512.37833915 138.79045855 512.37833915 137.68676838 512.37867515 C136.96391424 512.37889343 136.2410601 512.3791117 135.49630129 512.3793366 C134.03176474 512.37978005 132.5672282 512.38022661 131.10269165 512.38067627 C130.37624602 512.3808977 129.64980038 512.38111913 128.90134124 512.38134727 C117.15136963 512.38528855 105.40146029 512.40272385 93.6515127 512.42603579 C81.55777735 512.44983392 69.46407312 512.46221554 57.370314 512.46337771 C50.59243905 512.46428994 43.81464518 512.46992664 37.03679276 512.48819733 C30.65258987 512.50477193 24.26853996 512.50678819 17.88432312 512.49805832 C15.55366478 512.49729287 13.2229979 512.50156496 10.89236069 512.51151657 C-32.43967552 512.68554362 -70.63163355 498.13992266 -101.73031616 467.61309814 C-110.18137924 459.02825266 -117.08227727 449.50293832 -123.18002319 439.14044189 C-123.52661987 438.55569092 -123.87321655 437.97093994 -124.23031616 437.36846924 C-139.15366328 411.83265263 -143.96888288 384.22270078 -143.82699585 354.93341064 C-143.83379502 352.5269607 -143.84271086 350.12051597 -143.85354614 347.71408081 C-143.87607264 341.2594098 -143.86761464 334.80514453 -143.85165071 328.35046768 C-143.84267249 324.30057544 -143.84447118 320.25073325 -143.84910202 316.20083618 C-143.84986819 315.52315191 -143.85063435 314.84546765 -143.85142373 314.14724749 C-143.85302277 312.7694531 -143.85464384 311.39165874 -143.85628669 310.0138644 C-143.87045789 297.17115175 -143.8542884 284.32861914 -143.82728486 271.48593605 C-143.80495393 260.5272569 -143.80883651 249.56884283 -143.83187866 238.61016846 C-143.85879081 225.80542442 -143.86908541 213.00083715 -143.85381734 200.19606876 C-143.85222502 198.82406174 -143.85065316 197.45205468 -143.84910202 196.08004761 C-143.84833064 195.40544076 -143.84755927 194.73083391 -143.84676451 194.03578442 C-143.84249339 189.33985864 -143.8498857 184.64406472 -143.86149979 179.94815063 C-143.87611257 173.59803788 -143.86562045 167.2484178 -143.8370285 160.89835739 C-143.83050645 158.58998806 -143.83215941 156.2815761 -143.84334183 153.97322464 C-144.02984188 111.50758545 -129.37532516 73.193066 -99.75082397 42.66778564 C-73.70742027 16.77431011 -36.88675524 -0.03468097 0 0 Z " fill="#7210C7" transform="translate(143.18002319335938,-0.14044189453125)"/>
<path d="M0 0 C92.07 0 184.14 0 279 0 C277.51082821 3.72292947 276.70960386 5.6724254 274.3828125 8.609375 C273.86468994 9.27243652 273.34656738 9.93549805 272.81274414 10.61865234 C271.97731079 11.67366943 271.97731079 11.67366943 271.125 12.75 C266.62420935 18.53004159 262.25234427 24.3655743 258.0625 30.375 C253.24167688 37.2789047 248.29159126 44.07568159 243.28149414 50.84326172 C239.31686214 56.20240306 235.39336566 61.58889167 231.5 67 C226.46006391 74.00225341 221.35786473 80.95613449 216.23046875 87.89453125 C212.28584596 93.23857676 208.38030944 98.60910781 204.5 104 C199.45992181 111.00215242 194.35786615 117.95613256 189.23046875 124.89453125 C185.28584489 130.23857821 181.38041885 135.60918549 177.5 141 C170.09724782 151.28066343 162.57288246 161.4706506 155.03613281 171.65332031 C153.71874183 173.4332476 152.40191613 175.21359343 151.08569336 176.99438477 C149.84306986 178.67556246 148.59914186 180.35577691 147.35375977 182.03491211 C146.51929321 183.16425171 146.51929321 183.16425171 145.66796875 184.31640625 C145.17578857 184.98099854 144.6836084 185.64559082 144.17651367 186.33032227 C142.93757917 188.00015955 142.93757917 188.00015955 142 190 C116.26 190 90.52 190 64 190 C66.24810498 184.37973755 66.24810498 184.37973755 68.36328125 181.64453125 C68.8310498 181.03182373 69.29881836 180.41911621 69.78076172 179.7878418 C70.28623535 179.135979 70.79170898 178.48411621 71.3125 177.8125 C72.40638741 176.37870126 73.49878304 174.94376341 74.58984375 173.5078125 C75.15429199 172.76563477 75.71874023 172.02345703 76.30029297 171.25878906 C79.04731032 167.6081995 81.71145003 163.89920433 84.375 160.1875 C88.87500029 153.92695314 93.41699804 147.70004732 98 141.5 C102.53759633 135.3599045 107.03979235 129.19654153 111.5 123 C115.96021076 116.80345416 120.46271938 110.64033199 125 104.5 C129.63162382 98.2280496 134.24182263 91.94153516 138.8125 85.625 C139.30298828 84.94888672 139.79347656 84.27277344 140.29882812 83.57617188 C144.96415316 77.11410811 149.46014999 70.55756113 154 64 C103.18 64 52.36 64 0 64 C0 42.88 0 21.76 0 0 Z " fill="#FDFCFE" transform="translate(116,107)"/>
<path d="M0 0 C2.34656463 0.00451843 4.69315184 0.00196956 7.03970337 -0.00708008 C13.38376829 -0.01165595 19.72295566 0.08214195 26.06589031 0.19410324 C32.03063955 0.2842151 37.99540311 0.30009739 43.96070364 0.31653321 C55.76801132 0.35146196 67.57353993 0.45768852 79.37988281 0.609375 C90.84138145 0.75647687 102.30239509 0.869612 113.76464844 0.9375 C114.82627684 0.94380536 114.82627684 0.94380536 115.90935227 0.95023811 C119.46031059 0.9711203 123.01127231 0.99133924 126.56223631 1.01122856 C155.97284294 1.17681694 185.38090549 1.47161774 214.79003906 1.81640625 C214.79003906 22.60640625 214.79003906 43.39640625 214.79003906 64.81640625 C126.35003906 64.81640625 37.91003906 64.81640625 -53.20996094 64.81640625 C-53.20996094 41.81640625 -53.20996094 41.81640625 -49.83496094 36.25390625 C-48.2988359 34.76898538 -46.75678846 33.29017514 -45.20996094 31.81640625 C-43.57656093 29.6285243 -42.00730507 27.4370539 -40.45996094 25.19140625 C-39.63638674 24.06323269 -38.81270465 22.93513788 -37.98892593 21.80711365 C-36.09459339 19.17027093 -34.44915444 16.50543321 -32.88824081 13.66004944 C-24.62554009 -0.47547949 -15.37304218 -0.41529776 0 0 Z " fill="#FDFDFE" transform="translate(169.2099609375,340.18359375)"/>
</svg>
