<?xml version="1.0" encoding="UTF-8"?>
<svg version="1.1" xmlns="http://www.w3.org/2000/svg" width="1280" height="253">
<path d="M0 0 C8.47841183 0.1095373 16.95676946 0.22249225 25.43508339 0.33933926 C29.37564895 0.39355025 33.31622167 0.4467576 37.25683594 0.49731445 C57.84920707 0.76239971 78.42021385 1.21648217 99 2 C98.19147317 5.53695667 96.88725876 8.27286422 95.11328125 11.453125 C94.21113892 13.07565186 94.21113892 13.07565186 93.29077148 14.73095703 C92.63159664 15.90411129 91.97216613 17.07712192 91.3125 18.25 C90.63145072 19.4685084 89.95054448 20.68709676 89.26977539 21.90576172 C84.35055345 30.69025673 79.30393964 39.39726845 74.20239258 48.07714844 C70.04263504 55.1680826 65.99728204 62.31636565 62 69.5 C56.87237477 78.71384688 51.61694188 87.84248946 46.27636719 96.93432617 C41.21181956 105.57994652 36.3068659 114.30948115 31.44140625 123.06835938 C30.88839844 124.06287109 30.33539063 125.05738281 29.765625 126.08203125 C29.27868164 126.96093018 28.79173828 127.8398291 28.29003906 128.74536133 C27.2637403 130.53905343 26.14631456 132.28052815 25 134 C24.71113028 136.16036331 24.71113028 136.16036331 24.77294922 138.56323242 C24.77310028 139.48396042 24.77325134 140.40468842 24.77340698 141.35331726 C24.78372955 142.34402725 24.79405212 143.33473724 24.8046875 144.35546875 C24.80893234 145.88062859 24.80893234 145.88062859 24.81326294 147.43659973 C24.82446617 150.68701908 24.84957114 153.93716381 24.875 157.1875 C24.88502961 159.38996998 24.89415549 161.59244428 24.90234375 163.79492188 C24.92440595 169.19670843 24.95788492 174.59833459 25 180 C25.36125977 179.35264893 25.72251953 178.70529785 26.09472656 178.03833008 C32.35113068 166.83272693 38.6138389 155.63230907 45 144.5 C49.38230162 136.86032449 53.70522565 129.18921113 58 121.5 C62.79886108 112.90938954 67.64100189 104.34572715 72.53344727 95.80810547 C76.18957779 89.42576932 79.820354 83.02950791 83.4375 76.625 C83.97987305 75.664729 84.52224609 74.70445801 85.08105469 73.71508789 C87.24863031 69.87616353 89.41527796 66.03671686 91.58105469 62.19677734 C98.97193015 49.09351496 106.40576987 36.01570588 113.8840332 22.9621582 C114.535896 21.82351318 115.18775879 20.68486816 115.859375 19.51171875 C116.73287598 17.98744263 116.73287598 17.98744263 117.62402344 16.43237305 C118.44940714 14.97330671 119.25031569 13.49936862 120 12 C123.71164158 13.64271218 126.68166296 15.94892687 129.875 18.4375 C130.44162354 18.87779541 131.00824707 19.31809082 131.59204102 19.77172852 C133.39789433 21.17710716 135.19942814 22.58786284 137 24 C137.57637207 24.45117188 138.15274414 24.90234375 138.74658203 25.3671875 C142.24720651 28.10827054 145.74174618 30.85700672 149.23388672 33.60888672 C152.72822303 36.36126829 156.22710457 39.10787073 159.72558594 41.85498047 C162.78195913 44.25543149 165.83597444 46.65880415 168.88671875 49.06640625 C169.52287109 49.56785156 170.15902344 50.06929687 170.81445312 50.5859375 C172.03391969 51.54726881 173.25270561 52.50946435 174.47070312 53.47265625 C176.93302648 55.41249364 179.38997091 57.25998061 182 59 C180.61739361 62.63005976 179.0029433 66.01709869 177.1640625 69.4375 C176.31920288 71.01035767 176.31920288 71.01035767 175.45727539 72.61499023 C174.55029907 74.29057007 174.55029907 74.29057007 173.625 76 C173.31287567 76.57823517 173.00075134 77.15647034 172.6791687 77.75222778 C168.10409662 86.22444865 163.4128419 94.6236549 158.60522461 102.96630859 C152.58921188 113.41512085 146.7684161 123.9720514 140.92773438 134.51953125 C137.76840001 140.22361822 134.60344172 145.92457825 131.4375 151.625 C130.81641357 152.74342285 130.19532715 153.8618457 129.55541992 155.01416016 C124.82127176 163.53402143 120.06425358 172.04089416 115.29345703 180.5402832 C112.14209841 186.15875914 109.00810955 191.78631358 105.89453125 197.42578125 C105.20640751 198.67058801 104.51825669 199.9153798 103.83007812 201.16015625 C102.51169167 203.54508476 101.1972009 205.93210508 99.88476562 208.3203125 C99.28986328 209.39667969 98.69496094 210.47304687 98.08203125 211.58203125 C97.55843018 212.53311768 97.0348291 213.4842041 96.49536133 214.46411133 C96.00189209 215.30095459 95.50842285 216.13779785 95 217 C94.58282715 217.76368896 94.1656543 218.52737793 93.73583984 219.31420898 C92 221 92 221 88.90551758 221.45410156 C87.66439209 221.4331543 86.4232666 221.41220703 85.14453125 221.390625 C84.48289474 221.38496521 83.82125824 221.37930542 83.13957214 221.37347412 C81.02980668 221.35111247 78.92175048 221.30092371 76.8125 221.25 C75.38088394 221.2299344 73.9492412 221.21168372 72.51757812 221.1953125 C69.01116485 221.15125069 65.50574928 221.08222777 62 221 C63.28623687 216.80686005 64.87400728 213.13817128 67.01953125 209.31640625 C67.6228125 208.23617187 68.22609375 207.1559375 68.84765625 206.04296875 C69.49605469 204.89441406 70.14445312 203.74585938 70.8125 202.5625 C71.49260742 201.34919362 72.17228889 200.13564839 72.8515625 198.921875 C74.89367957 195.27708377 76.9454645 191.63780234 79 188 C79.57282715 186.98534668 80.1456543 185.97069336 80.73583984 184.92529297 C82.8508671 181.18175211 84.96771584 177.43925277 87.08764648 173.69848633 C93.15409878 162.98523291 99.1193424 152.21597564 105.08837891 141.44824219 C108.24409145 135.75586876 111.40273264 130.06512349 114.5625 124.375 C115.1807666 123.2614917 115.7990332 122.1479834 116.43603516 121.00073242 C120.6897893 113.34475464 124.96511098 105.70108773 129.25 98.0625 C135.22680214 87.40776077 141.13329926 76.71570849 147 66 C143.46843481 62.31118515 139.81465908 59.22617756 135.6875 56.1875 C133.79166667 54.79166667 131.89583333 53.39583333 130 52 C124.65355209 60.53476073 119.59399717 69.16785846 114.75 78 C113.43561273 80.38393 112.1184821 82.76633774 110.80078125 85.1484375 C110.47610367 85.73579681 110.15142609 86.32315613 109.81690979 86.92831421 C106.90508967 92.18834968 103.93275942 97.41215501 100.9375 102.625 C96.57407765 110.22200371 92.27168201 117.85103395 88 125.5 C83.20119767 134.09064286 78.35899773 142.65427351 73.46655273 151.19189453 C69.81042168 157.5742316 66.17978649 163.97057077 62.5625 170.375 C62.02520264 171.32584473 61.48790527 172.27668945 60.93432617 173.25634766 C58.1527488 178.18095767 55.37628675 183.10839067 52.60546875 188.0390625 C52.04335693 189.03760254 51.48124512 190.03614258 50.90209961 191.06494141 C49.85036499 192.93341394 48.80022129 194.80278352 47.75219727 196.67333984 C46.74868939 198.45490006 45.72243974 200.22381357 44.67553711 201.98022461 C43.37876735 204.3173578 42.3277508 206.54049271 41.29516602 208.99047852 C36.77808629 218.94296345 36.77808629 218.94296345 31.97833252 220.76922607 C26.14546961 221.86809818 20.31762085 221.36846673 14.4375 220.9375 C12.64806656 220.86216396 10.85832803 220.79373897 9.06835938 220.73242188 C4.70464548 220.56796127 0.35570124 220.30991817 -4 220 C-3.89055751 211.74781148 -3.77761355 203.49568028 -3.66066074 195.24359512 C-3.60640584 191.40834736 -3.55318708 187.57309214 -3.50268555 183.73779297 C-3.39502335 175.61499943 -3.26939363 167.49301866 -3.10925198 159.37107563 C-3.04294378 155.88665419 -2.99132494 152.40335561 -2.97683716 148.91830444 C-2.9599153 145.13100475 -2.90848048 141.34547069 -2.8515625 137.55859375 C-2.85793228 136.46125916 -2.86430206 135.36392456 -2.87086487 134.2333374 C-2.64309199 123.60133302 2.03404142 115.50070513 8.04296875 106.92578125 C12.08050379 100.97754764 15.55552115 94.80510633 19 88.5 C24.14414402 79.23895706 29.42841969 70.06845098 34.78955078 60.93164062 C40.98432031 50.35820355 47.00253916 39.68627512 53 29 C52.39526855 28.97494385 51.79053711 28.9498877 51.16748047 28.92407227 C48.4031438 28.80736994 45.63908634 28.68498266 42.875 28.5625 C41.92367187 28.52318359 40.97234375 28.48386719 39.9921875 28.44335938 C35.25371013 28.22946977 30.66405699 27.93438179 26 27 C26.16242188 27.7321875 26.32484375 28.464375 26.4921875 29.21875 C28.00685863 42.20164539 20.55610863 51.44550404 13.88623047 61.97460938 C10.54114407 67.33990974 7.47826017 72.8668481 4.37768555 78.37573242 C3.95914307 79.10638916 3.54060059 79.8370459 3.109375 80.58984375 C2.74811523 81.22784912 2.38685547 81.86585449 2.01464844 82.52319336 C1 84 1 84 -1 85 C-1.12123983 56.64480233 -0.8964522 28.34115308 0 0 Z " fill="#B94297" transform="translate(186,10)"/>
<path d="M0 0 C2.98095703 -0.2487793 2.98095703 -0.2487793 6.7578125 -0.07421875 C7.42086395 -0.04777786 8.08391541 -0.02133698 8.76705933 0.00590515 C10.88727985 0.09376252 13.00580447 0.20286989 15.125 0.3125 C16.56113692 0.37574955 17.99733547 0.43761594 19.43359375 0.49804688 C22.95658582 0.6493141 26.47836332 0.8196543 30 1 C28.71932892 5.23381674 27.11691679 8.7957506 24.83203125 12.578125 C24.19394531 13.64289063 23.55585938 14.70765625 22.8984375 15.8046875 C22.5590918 16.36510742 22.21974609 16.92552734 21.87011719 17.50292969 C20.0432373 20.52073958 18.23582547 23.55019836 16.42578125 26.578125 C15.86825668 27.50908997 15.86825668 27.50908997 15.29946899 28.4588623 C11.62831358 34.59833792 8.05787388 40.79428439 4.5 47 C-1.24172016 56.99863013 -7.08918522 66.92990808 -12.98657227 76.83740234 C-18.5433166 86.18857996 -23.9894577 95.60039862 -29.39257812 105.04101562 C-30.27913086 106.58692383 -30.27913086 106.58692383 -31.18359375 108.1640625 C-31.70493896 109.07623535 -32.22628418 109.9884082 -32.76342773 110.92822266 C-34 113 -34 113 -35 114 C-37.29151417 114.08790975 -39.58572524 114.10694038 -41.87890625 114.09765625 C-42.90889992 114.09553383 -42.90889992 114.09553383 -43.95970154 114.09336853 C-46.16067801 114.08775479 -48.36155409 114.07520007 -50.5625 114.0625 C-52.05143083 114.05748676 -53.54036324 114.05292355 -55.02929688 114.04882812 C-58.68623075 114.03778093 -62.34310558 114.02050713 -66 114 C-64.63982097 110.385578 -63.02038074 107.11387007 -61.0859375 103.7734375 C-60.498125 102.75572266 -59.9103125 101.73800781 -59.3046875 100.68945312 C-58.66789062 99.59568359 -58.03109375 98.50191406 -57.375 97.375 C-56.70298459 96.21557616 -56.03111234 95.05606934 -55.359375 93.89648438 C-49.96387183 84.59728264 -44.48038188 75.35064923 -38.98388672 66.11083984 C-34.42793289 58.4417797 -29.94286997 50.73505594 -25.5 43 C-20.12739722 33.64838283 -14.68682217 24.33995385 -9.1875 15.0625 C-8.66397949 14.17848511 -8.66397949 14.17848511 -8.12988281 13.27661133 C-2.36946903 3.55420354 -2.36946903 3.55420354 0 0 Z " fill="#AD3BA4" transform="translate(367,118)"/>
<path d="M0 0 C17 0 17 0 21.046875 2.9375 C22.45727539 4.87768555 22.45727539 4.87768555 23.75 7 C24.7835255 8.46599479 25.81873502 9.93080353 26.85546875 11.39453125 C27.61996338 12.53269287 27.61996338 12.53269287 28.39990234 13.69384766 C31.06660487 17.537252 34.07506709 21.09179677 37.0625 24.6875 C38.11768544 25.9816073 39.17117407 27.2771007 40.22265625 28.57421875 C40.66359619 29.11651123 41.10453613 29.65880371 41.55883789 30.2175293 C43.38115798 32.47142714 45.18936411 34.73670513 47 37 C47.33 24.79 47.66 12.58 48 0 C53.61 0 59.22 0 65 0 C65 22.11 65 44.22 65 67 C48 67 48 67 41.9375 61.125 C40.40380859 59.1640625 40.40380859 59.1640625 39.3359375 57.5 C37.39116041 54.56627301 35.30917205 51.83934664 33.0625 49.125 C31.70795215 47.41696889 30.35384132 45.70859118 29 44 C26.83563959 41.28981999 24.66762733 38.5825673 22.5 35.875 C20.685 33.60625 18.87 31.3375 17 29 C16.67 41.54 16.34 54.08 16 67 C10.72 67 5.44 67 0 67 C0 44.89 0 22.78 0 0 Z " fill="#FEFEFE" transform="translate(618,143)"/>
<path d="M0 0 C19.14 0 38.28 0 58 0 C58 15 58 15 54.6953125 20.00756836 C53.2098505 21.49069532 51.6839499 22.93416308 50.125 24.33984375 C49.32594238 25.11767715 48.52688477 25.89551056 47.70361328 26.69691467 C45.16899883 29.14823913 42.58727836 31.54195228 40 33.9375 C38.26221656 35.59996005 36.52780144 37.26594861 34.796875 38.93554688 C30.57387731 43.00685643 26.29123562 46.99612391 22 51 C34.54 51.33 47.08 51.66 60 52 C60 56.95 60 61.9 60 67 C39.21 67 18.42 67 -3 67 C-3 52 -3 52 0 47.5 C1.29602864 46.29202705 2.63136024 45.1250396 4 44 C4.69407959 43.37101807 5.38815918 42.74203613 6.10327148 42.09399414 C8.03720153 40.35434225 10.00691207 38.67114849 12 37 C12.75410156 36.33871094 13.50820313 35.67742187 14.28515625 34.99609375 C15.49095982 33.93869677 16.70209969 32.88736011 17.91796875 31.84155273 C19.87653197 30.10920724 21.74040057 28.3242431 23.58984375 26.4765625 C24.17499756 25.89342285 24.76015137 25.3102832 25.36303711 24.70947266 C28.2473718 21.81162743 31.12276809 18.9048976 34 16 C22.78 15.67 11.56 15.34 0 15 C0 10.05 0 5.1 0 0 Z " fill="#FEFEFE" transform="translate(406,143)"/>
<path d="M0 0 C5.94 0 11.88 0 18 0 C24.73297731 14.91966562 31.29248249 29.90417498 37.66064453 44.98309326 C38.38764399 46.70450317 39.11583693 48.42540951 39.84521484 50.14581299 C40.87468635 52.57604754 41.89912031 55.00833859 42.921875 57.44140625 C43.38977448 58.54433266 43.38977448 58.54433266 43.86712646 59.66954041 C46 64.77013357 46 64.77013357 46 67 C40.06 67 34.12 67 28 67 C26.68 64.03 25.36 61.06 24 58 C13.77 57.67 3.54 57.34 -7 57 C-7.99 59.97 -8.98 62.94 -10 66 C-11 67 -11 67 -14.81640625 67.09765625 C-16.39846682 67.09098089 -17.98051159 67.07901875 -19.5625 67.0625 C-20.36880859 67.05798828 -21.17511719 67.05347656 -22.00585938 67.04882812 C-24.00393756 67.03700518 -26.00197783 67.01906914 -28 67 C-27.37211475 63.27887081 -26.31828069 60.06992071 -24.83862305 56.60229492 C-24.39113205 55.5473735 -23.94364105 54.49245209 -23.48258972 53.40556335 C-22.75450859 51.71014153 -22.75450859 51.71014153 -22.01171875 49.98046875 C-21.51211136 48.80793045 -21.01250397 47.63539215 -20.49775696 46.42732239 C-19.43996815 43.94753695 -18.38040278 41.46860919 -17.31762695 38.9909668 C-15.96450303 35.83614327 -14.61773672 32.67865709 -13.27319622 29.52016735 C-11.98047294 26.48491745 -10.68351944 23.45147835 -9.38671875 20.41796875 C-8.90740402 19.29376022 -8.42808929 18.1695517 -7.93424988 17.01127625 C-7.4773024 15.94689835 -7.02035492 14.88252045 -6.54956055 13.78588867 C-6.15286667 12.85943039 -5.75617279 11.93297211 -5.34745789 10.97843933 C-3.66965364 7.26979789 -1.82038724 3.64077447 0 0 Z M8 22 C6.66087415 25.12254943 5.32969342 28.24842358 4 31.375 C3.42765625 32.70917969 3.42765625 32.70917969 2.84375 34.0703125 C2.4828125 34.92109375 2.121875 35.771875 1.75 36.6484375 C1.24726562 37.82672119 1.24726562 37.82672119 0.734375 39.02880859 C-0.11637101 40.96176935 -0.11637101 40.96176935 0 43 C5.94 43 11.88 43 18 43 C15.72564796 35.81783567 12.96415819 28.9241798 10 22 C9.34 22 8.68 22 8 22 Z " fill="#FEFEFE" transform="translate(1044,143)"/>
<path d="M0 0 C5.28 0 10.56 0 16 0 C16 8.91 16 17.82 16 27 C25.24 27 34.48 27 44 27 C44 18.09 44 9.18 44 0 C49.28 0 54.56 0 60 0 C60 22.11 60 44.22 60 67 C54.72 67 49.44 67 44 67 C44 58.75 44 50.5 44 42 C34.76 42 25.52 42 16 42 C16 50.25 16 58.5 16 67 C10.72 67 5.44 67 0 67 C0 44.89 0 22.78 0 0 Z " fill="#FEFEFE" transform="translate(907,143)"/>
<path d="M0 0 C16.5 0 33 0 50 0 C50 4.95 50 9.9 50 15 C38.78 15 27.56 15 16 15 C16 18.96 16 22.92 16 27 C25.24 27 34.48 27 44 27 C44 31.62 44 36.24 44 41 C34.76 41 25.52 41 16 41 C16 44.63 16 48.26 16 52 C27.22 52 38.44 52 50 52 C50 56.95 50 61.9 50 67 C33.5 67 17 67 0 67 C0 44.89 0 22.78 0 0 Z " fill="#FEFEFE" transform="translate(518,143)"/>
<path d="M0 0 C19.8 0 39.6 0 60 0 C60 4.95 60 9.9 60 15 C52.74 15 45.48 15 38 15 C38 32.16 38 49.32 38 67 C32.72 67 27.44 67 22 67 C22 49.84 22 32.68 22 15 C14.74 15 7.48 15 0 15 C0 10.05 0 5.1 0 0 Z " fill="#FEFEFE" transform="translate(799,143)"/>
<path d="M0 0 C5.28 0 10.56 0 16 0 C16 22.11 16 44.22 16 67 C10.72 67 5.44 67 0 67 C0 44.89 0 22.78 0 0 Z " fill="#FEFEFE" transform="translate(1139,143)"/>
<path d="M0 0 C5.28 0 10.56 0 16 0 C16 22.11 16 44.22 16 67 C10.72 67 5.44 67 0 67 C0 44.89 0 22.78 0 0 Z " fill="#FEFEFE" transform="translate(734,143)"/>
</svg>
